<svg width="140" height="24" viewBox="0 0 140 24" fill="none" xmlns="http://www.w3.org/2000/svg" data-v-fcc97b40=""><path class="flash" d="M19.2356 2.3075C24.3504 2.30767 28.4963 6.45439 28.4963 11.5692C28.4962 16.6839 24.3503 20.8298 19.2356 20.83C14.1208 20.83 9.97405 16.684 9.97388 11.5692C9.97388 6.45428 14.1207 2.3075 19.2356 2.3075ZM17.0032 5.63171L14.343 13.6112H19.6624L17.0032 18.9305L24.9817 10.951H19.6624L22.3225 5.63171H17.0032Z" fill="white" data-v-fcc97b40=""></path><path d="M2.49219 7.38525H9.07324C8.65113 8.21723 8.35003 9.12065 8.19531 10.0737H2.61035V13.7671H8.33887C8.57232 14.7259 8.95403 15.626 9.45996 16.4419H2.49219V23.5923H0V0.407715H2.49219V7.38525ZM13.4639 19.9819C14.2426 20.3409 15.0788 20.596 15.9561 20.7271V23.5923H13.4639V19.9819ZM15.9561 2.40967C15.0787 2.54067 14.2426 2.79679 13.4639 3.15576V0.407715H15.9561V2.40967Z" fill="white" data-v-fcc97b40=""></path><path class="xxxhidden xxxsm:block" d="M38.2243 21V4.128H41.4883V21H38.2243ZM48.8083 21V4.128H52.0723V21H48.8083ZM40.2883 13.728V10.848H49.7203V13.728H40.2883ZM60.0332 21.24C58.9772 21.24 58.0252 20.976 57.1772 20.448C56.3292 19.92 55.6652 19.2 55.1852 18.288C54.7052 17.376 54.4652 16.352 54.4652 15.216C54.4652 14.064 54.7052 13.032 55.1852 12.12C55.6652 11.208 56.3292 10.488 57.1772 9.96C58.0252 9.432 58.9772 9.168 60.0332 9.168C60.8652 9.168 61.6092 9.336 62.2652 9.672C62.9212 10.008 63.4412 10.48 63.8252 11.088C64.2252 11.68 64.4412 12.352 64.4732 13.104V17.28C64.4412 18.048 64.2252 18.728 63.8252 19.32C63.4412 19.912 62.9212 20.384 62.2652 20.736C61.6092 21.072 60.8652 21.24 60.0332 21.24ZM60.6092 18.336C61.4892 18.336 62.2012 18.048 62.7452 17.472C63.2892 16.88 63.5612 16.12 63.5612 15.192C63.5612 14.584 63.4332 14.048 63.1772 13.584C62.9372 13.104 62.5932 12.736 62.1452 12.48C61.7132 12.208 61.2012 12.072 60.6092 12.072C60.0332 12.072 59.5212 12.208 59.0732 12.48C58.6412 12.736 58.2972 13.104 58.0412 13.584C57.8012 14.048 57.6812 14.584 57.6812 15.192C57.6812 15.816 57.8012 16.368 58.0412 16.848C58.2972 17.312 58.6412 17.68 59.0732 17.952C59.5212 18.208 60.0332 18.336 60.6092 18.336ZM63.3932 21V17.88L63.8972 15.048L63.3932 12.264V9.408H66.5132V21H63.3932ZM73.2786 21.264C72.6226 21.264 71.9746 21.176 71.3346 21C70.7106 20.824 70.1346 20.584 69.6066 20.28C69.0786 19.96 68.6226 19.576 68.2386 19.128L70.1106 17.232C70.5106 17.68 70.9746 18.016 71.5026 18.24C72.0306 18.464 72.6146 18.576 73.2546 18.576C73.7666 18.576 74.1506 18.504 74.4066 18.36C74.6786 18.216 74.8146 18 74.8146 17.712C74.8146 17.392 74.6706 17.144 74.3826 16.968C74.1106 16.792 73.7506 16.648 73.3026 16.536C72.8546 16.408 72.3826 16.272 71.8866 16.128C71.4066 15.968 70.9426 15.768 70.4946 15.528C70.0466 15.272 69.6786 14.928 69.3906 14.496C69.1186 14.048 68.9826 13.472 68.9826 12.768C68.9826 12.032 69.1586 11.392 69.5106 10.848C69.8786 10.304 70.3986 9.88 71.0706 9.576C71.7426 9.272 72.5346 9.12 73.4466 9.12C74.4066 9.12 75.2706 9.288 76.0386 9.624C76.8226 9.96 77.4706 10.464 77.9826 11.136L76.0866 13.032C75.7346 12.6 75.3346 12.288 74.8866 12.096C74.4546 11.904 73.9826 11.808 73.4706 11.808C73.0066 11.808 72.6466 11.88 72.3906 12.024C72.1506 12.168 72.0306 12.368 72.0306 12.624C72.0306 12.912 72.1666 13.136 72.4386 13.296C72.7266 13.456 73.0946 13.6 73.5426 13.728C73.9906 13.84 74.4546 13.976 74.9346 14.136C75.4306 14.28 75.8946 14.488 76.3266 14.76C76.7746 15.032 77.1346 15.392 77.4066 15.84C77.6946 16.288 77.8386 16.864 77.8386 17.568C77.8386 18.704 77.4306 19.608 76.6146 20.28C75.7986 20.936 74.6866 21.264 73.2786 21.264ZM87.7587 21V14.352C87.7587 13.664 87.5427 13.104 87.1107 12.672C86.6787 12.24 86.1187 12.024 85.4307 12.024C84.9827 12.024 84.5827 12.12 84.2307 12.312C83.8787 12.504 83.5987 12.776 83.3907 13.128C83.1987 13.48 83.1027 13.888 83.1027 14.352L81.8787 13.728C81.8787 12.816 82.0707 12.024 82.4547 11.352C82.8387 10.664 83.3667 10.128 84.0387 9.744C84.7267 9.36 85.5107 9.168 86.3907 9.168C87.2707 9.168 88.0467 9.36 88.7187 9.744C89.4067 10.128 89.9427 10.656 90.3267 11.328C90.7107 12 90.9027 12.776 90.9027 13.656V21H87.7587ZM79.9587 21V3.648H83.1027V21H79.9587ZM93.7712 21V4.128H97.0352V21H93.7712ZM96.1712 14.088V11.184H104.667V14.088H96.1712ZM96.1712 7.008V4.128H105.075V7.008H96.1712ZM111.76 21.24C110.704 21.24 109.752 20.976 108.904 20.448C108.056 19.92 107.392 19.2 106.912 18.288C106.432 17.376 106.192 16.352 106.192 15.216C106.192 14.064 106.432 13.032 106.912 12.12C107.392 11.208 108.056 10.488 108.904 9.96C109.752 9.432 110.704 9.168 111.76 9.168C112.592 9.168 113.336 9.336 113.992 9.672C114.648 10.008 115.168 10.48 115.552 11.088C115.952 11.68 116.168 12.352 116.2 13.104V17.28C116.168 18.048 115.952 18.728 115.552 19.32C115.168 19.912 114.648 20.384 113.992 20.736C113.336 21.072 112.592 21.24 111.76 21.24ZM112.336 18.336C113.216 18.336 113.928 18.048 114.472 17.472C115.016 16.88 115.288 16.12 115.288 15.192C115.288 14.584 115.16 14.048 114.904 13.584C114.664 13.104 114.32 12.736 113.872 12.48C113.44 12.208 112.928 12.072 112.336 12.072C111.76 12.072 111.248 12.208 110.8 12.48C110.368 12.736 110.024 13.104 109.768 13.584C109.528 14.048 109.408 14.584 109.408 15.192C109.408 15.816 109.528 16.368 109.768 16.848C110.024 17.312 110.368 17.68 110.8 17.952C111.248 18.208 111.76 18.336 112.336 18.336ZM115.12 21V17.88L115.624 15.048L115.12 12.264V9.408H118.24V21H115.12ZM125.005 21.264C124.349 21.264 123.701 21.176 123.061 21C122.437 20.824 121.861 20.584 121.333 20.28C120.805 19.96 120.349 19.576 119.965 19.128L121.837 17.232C122.237 17.68 122.701 18.016 123.229 18.24C123.757 18.464 124.341 18.576 124.981 18.576C125.493 18.576 125.877 18.504 126.133 18.36C126.405 18.216 126.541 18 126.541 17.712C126.541 17.392 126.397 17.144 126.109 16.968C125.837 16.792 125.477 16.648 125.029 16.536C124.581 16.408 124.109 16.272 123.613 16.128C123.133 15.968 122.669 15.768 122.221 15.528C121.773 15.272 121.405 14.928 121.117 14.496C120.845 14.048 120.709 13.472 120.709 12.768C120.709 12.032 120.885 11.392 121.237 10.848C121.605 10.304 122.125 9.88 122.797 9.576C123.469 9.272 124.261 9.12 125.173 9.12C126.133 9.12 126.997 9.288 127.765 9.624C128.549 9.96 129.197 10.464 129.709 11.136L127.813 13.032C127.461 12.6 127.061 12.288 126.613 12.096C126.181 11.904 125.709 11.808 125.197 11.808C124.733 11.808 124.373 11.88 124.117 12.024C123.877 12.168 123.757 12.368 123.757 12.624C123.757 12.912 123.893 13.136 124.165 13.296C124.453 13.456 124.821 13.6 125.269 13.728C125.717 13.84 126.181 13.976 126.661 14.136C127.157 14.28 127.621 14.488 128.053 14.76C128.501 15.032 128.861 15.392 129.133 15.84C129.421 16.288 129.565 16.864 129.565 17.568C129.565 18.704 129.157 19.608 128.341 20.28C127.525 20.936 126.413 21.264 125.005 21.264ZM133.389 21V4.584H136.533V21H133.389ZM130.677 12.168V9.408H139.245V12.168H130.677Z" fill="white" data-v-fcc97b40=""></path></svg>